<svg xmlns="http://www.w3.org/2000/svg" width="55.604" height="52.368" viewBox="0 0 55.604 52.368">
    <g id="Group_1400" data-name="Group 1400" transform="translate(-398.422 1774.587)">
        <path id="Path_823" data-name="Path 823" d="M448.942-1759.9a26.233,26.233,0,0,0-35.835-9.6,26.233,26.233,0,0,0-9.6,35.835,26.2,26.2,0,0,0,5.027,6.259l30.253,3.645c.185-.1.371-.2.555-.3A26.233,26.233,0,0,0,448.942-1759.9Z" transform="translate(0 0)" fill="#51d8e6" stroke="#070203" stroke-miterlimit="10" stroke-width="3"/>
        <path id="Path_824" data-name="Path 824" d="M432.667-1614.492l30.253,3.645A26.239,26.239,0,0,0,432.667-1614.492Z" transform="translate(-23.8 -113.111)" fill="#0d437d" stroke="#070203" stroke-linecap="round" stroke-linejoin="round" stroke-width="3"/>
        <path id="Path_825" data-name="Path 825" d="M450.26-1738.921l7.576,6.928,10.266.078-4.248,9.346,3.1,9.787-10.2-1.152-8.351,5.971-2.057-10.058-8.259-6.1,8.93-5.064Z" transform="translate(-27.744 -24.834)" fill="#ff7f30" stroke="#070203" stroke-linecap="round" stroke-linejoin="round" stroke-width="3"/>
    </g>
</svg>