<svg xmlns="http://www.w3.org/2000/svg" width="40" height="40" viewBox="0 0 40 40">
    <path id="Path_914" data-name="Path 914" d="M2188.925-1790.566l-5.974-5.973a2.168,2.168,0,0,0-3.058,0l-4.244,4.244-.074-.1-4.14-4.139a2.167,2.167,0,0,0-3.057,0l-5.975,5.973a2.168,2.168,0,0,0,0,3.058l5.758,5.758,5.974,5.975a2.17,2.17,0,0,0,3.058,0l5.974-5.975h0l5.757-5.758A2.168,2.168,0,0,0,2188.925-1790.566Z" transform="translate(-2155 1805)" fill="none" stroke="#000" stroke-linecap="round" stroke-linejoin="round" stroke-width="4"/>
</svg>