<svg xmlns="http://www.w3.org/2000/svg" width="703" height="217" viewBox="0 0 703 217">
    <g id="Group_1412" data-name="Group 1412" transform="translate(-257 -12459)">
        <rect id="Rectangle_267" data-name="Rectangle 267" width="703" height="217" rx="32" transform="translate(257 12459)" fill="#bbf2e7"/>
        <text id="가까운_으뜸50안경_매장_찾으러가기" data-name="가까운 으뜸50안경
매장 찾으러가기" transform="translate(523 12558)" font-size="32" font-family="NotoSansKR-Bold, Noto Sans KR" font-weight="700"><tspan x="0" y="0">가까운 으뜸50안경</tspan><tspan x="0" y="47">매장 찾으러가기</tspan></text>
        <g id="Group_1375" data-name="Group 1375" transform="translate(307 12497)">
            <path id="Path_794" data-name="Path 794" d="M963.111,953.842a9.2,9.2,0,0,0-8.769-6.409H842.864a9.2,9.2,0,0,0-8.769,6.409l-16.724,52.479H840.5v57.453a9.2,9.2,0,0,0,9.2,9.2h100a9.2,9.2,0,0,0,9.2-9.2v-57.453h20.928l-12.777-40.092Z" transform="translate(-807.179 -932.415)" fill="#f19540"/>
            <path id="Path_795" data-name="Path 795" d="M958.11,1006.321H795.645l16.724-52.479a9.2,9.2,0,0,1,8.769-6.409H932.617a9.2,9.2,0,0,1,8.769,6.409Z" transform="translate(-795.645 -932.415)" fill="none" stroke="#000" stroke-linecap="round" stroke-linejoin="round" stroke-width="4"/>
            <path id="Rectangle_264" data-name="Rectangle 264" d="M0,0H118.406a0,0,0,0,1,0,0V47.038A19.618,19.618,0,0,1,98.789,66.656H19.618A19.618,19.618,0,0,1,0,47.038V0A0,0,0,0,1,0,0Z" transform="translate(23.131 73.906)" fill="none" stroke="#000" stroke-linecap="round" stroke-linejoin="round" stroke-width="4"/>
            <rect id="Rectangle_265" data-name="Rectangle 265" width="29.047" height="48.869" transform="translate(49.015 91.693)" fill="#fff" stroke="#000" stroke-linecap="round" stroke-linejoin="round" stroke-width="4"/>
            <g id="Group_1374" data-name="Group 1374" transform="translate(32.277)">
                <circle id="Ellipse_118" data-name="Ellipse 118" cx="22.892" cy="22.892" r="22.892" fill="#fff" stroke="#000" stroke-linecap="round" stroke-linejoin="round" stroke-width="4"/>
                <circle id="Ellipse_119" data-name="Ellipse 119" cx="22.892" cy="22.892" r="22.892" transform="translate(54.329)" fill="#fff" stroke="#000" stroke-linecap="round" stroke-linejoin="round" stroke-width="4"/>
                <path id="Path_796" data-name="Path 796" d="M958.328,931.187a12.063,12.063,0,0,1,12.026.088" transform="translate(-914.284 -922.961)" fill="none" stroke="#000" stroke-linecap="round" stroke-linejoin="round" stroke-width="4"/>
            </g>
        </g>
        <path id="arrow_white" d="M469.333,2067l27.394,27.394-27.394,27.394" transform="translate(403.273 10473.5)" fill="none" stroke="#fff" stroke-linecap="round" stroke-linejoin="round" stroke-width="4"/>
    </g>
</svg>