<svg xmlns="http://www.w3.org/2000/svg" width="703" height="217" viewBox="0 0 703 217">
    <g id="Group_1411" data-name="Group 1411" transform="translate(-999 -12459)">
        <rect id="Rectangle_268" data-name="Rectangle 268" width="703" height="217" rx="32" transform="translate(999 12459)" fill="#fbd3da"/>
        <text id="으뜸50안경_소개" data-name="으뜸50안경 소개" transform="translate(1265 12581)" font-size="32" font-family="NotoSansKR-Bold, Noto Sans KR" font-weight="700"><tspan x="0" y="0">으뜸50안경 소개</tspan></text>
        <path id="arrow_white" d="M469.333,2067l27.394,27.394-27.394,27.394" transform="translate(1145.273 10473.5)" fill="none" stroke="#fff" stroke-linecap="round" stroke-linejoin="round" stroke-width="4"/>
        <g id="Group_1377" data-name="Group 1377" transform="translate(-126.417 12514.674)">
            <path id="Path_797" data-name="Path 797" d="M1283.917-11.674a64.5,64.5,0,1,0,64.5,64.5A64.5,64.5,0,0,0,1283.917-11.674ZM1326,94.9a59.508,59.508,0,0,1-101.586-42.078A59.508,59.508,0,1,1,1326,94.9Z" transform="translate(0 0)"/>
            <path id="Path_798" data-name="Path 798" d="M1246.168,6.873c1.878,0,3.752-.664,5.729-.11a6.279,6.279,0,0,0-.683-.745c-.623-.5-1.287-.961-1.915-1.46a8.111,8.111,0,0,0-5.018-1.651,4.484,4.484,0,0,0-4.4,2.861,11.015,11.015,0,0,1-.664,1.137c.5-.029.833-.066,1.163-.062C1242.309,6.847,1244.239,6.873,1246.168,6.873Zm3.261-1.254c-1.074,1.108-2.351.774-3.4,1.012l1.222-2.388Zm-4.423-1.177a.924.924,0,0,1,.624-.469c.125-.026.444.315.44.491,0,.2-.257.4-.535.778C1245.259,4.845,1244.954,4.577,1245.006,4.441Zm-4.325,1.17a8.9,8.9,0,0,1,1.482-1.489,3.337,3.337,0,0,0,1,2.648,20.071,20.071,0,0,1-2.157-.209C1240.428,6.447,1240.314,6.088,1240.681,5.611Z" transform="translate(52.835 38.9)"/>
            <path id="Path_799" data-name="Path 799" d="M1246.1,5.68a19.508,19.508,0,0,1-6.525-1.361C1240.288,5.269,1244.784,6.2,1246.1,5.68Z" transform="translate(53.782 42.668)"/>
            <path id="Path_800" data-name="Path 800" d="M1240.676,3.122a21.042,21.042,0,0,0-3.22.356,3.751,3.751,0,0,0-1.5.807c-.976.8-1.893,1.665-2.835,2.509-.158.143-.316.293-.473.44l.128.143a2.151,2.151,0,0,1,.348-.194c.635-.216,1.328-.693,1.9-.58a32.509,32.509,0,0,0,7.233.319c1-.029,2-.088,3.085-.139-.2-.359-.363-.679-.554-.979C1243.831,4.281,1242.665,3.034,1240.676,3.122Zm-5.652,2.931a4.378,4.378,0,0,1,2.685-1.863A5.693,5.693,0,0,0,1237.9,5.6a6.41,6.41,0,0,0,.876,1.207A7.454,7.454,0,0,1,1235.024,6.053Zm5.546-1.563a2.964,2.964,0,0,1,.656-.55c.074-.033.315.312.587.6-.291.242-.536.554-.639.51C1240.937,4.952,1240.768,4.688,1240.57,4.49Zm3.044,2.131a17.007,17.007,0,0,1-1.922.018l1.009-2.322a18.058,18.058,0,0,1,1.31,1.456A.5.5,0,0,1,1243.615,6.621Z" transform="translate(35.307 39.463)"/>
            <path id="Path_801" data-name="Path 801" d="M1239.767,4.585l-5.96.858C1235.163,5.707,1239.224,5.1,1239.767,4.585Z" transform="translate(38.388 43.377)"/>
            <path id="Path_802" data-name="Path 802" d="M1237.9,8.015a6.617,6.617,0,0,1,.172,4.662C1238.909,11.577,1238.887,8.624,1237.9,8.015Z" transform="translate(49.303 52.528)"/>
            <path id="Path_803" data-name="Path 803" d="M1237.79,12.481c-.73-1.489.162-2.887.3-4.475C1237.2,9.11,1237.049,11.711,1237.79,12.481Z" transform="translate(47.752 52.504)"/>
            <path id="Path_804" data-name="Path 804" d="M1236.447,8.184a.777.777,0,0,0,.825.895c.554.018,1.108-.022,1.662-.011a1.956,1.956,0,0,1,.778.117,2.993,2.993,0,0,0,3.462-.436,3.173,3.173,0,0,0,2.439.341c.458-.132.9-.315.892-.895a1.032,1.032,0,0,0-1.167-.851,13.955,13.955,0,0,0-2.271.891c-.562.264-.873.906-1.643.91a2.624,2.624,0,0,1-2.043-.807,2.288,2.288,0,0,0-2.091-.844A1.228,1.228,0,0,0,1236.447,8.184Z" transform="translate(45.401 50.68)"/>
            <path id="Path_805" data-name="Path 805" d="M1242.058,11.643c-.752.062-1.508.114-2.264.169-.572.077-1.137.363-1.738.488-.627.132-1.28.132-1.658.726l.088.268a28.109,28.109,0,0,1,3.18-.855,12.6,12.6,0,0,1,3.279-.1,20.812,20.812,0,0,1,3.059.814l.077-.257c-1.185-.447-2.37-.9-3.562-1.328C1242.392,11.522,1242.215,11.632,1242.058,11.643Z" transform="translate(45.304 61.973)"/>
            <path id="Path_806" data-name="Path 806" d="M1236.73,10.265c.913,2.2,2.4,2.505,3.616,2.16-.576-.132-1.031-.227-1.485-.341a2.618,2.618,0,0,1-1.691-1.834,4.43,4.43,0,0,1,1.042-3.206,1.047,1.047,0,0,1,1.3-.341c.154.066.322.1.564.176a1.213,1.213,0,0,0-1.907-.231,23.212,23.212,0,0,0-1.222,2.292c-.194.374-.345.774-.55,1.141-.312.539-.653,1.056-.983,1.585l.169.114Z" transform="translate(42.686 47.895)"/>
            <path id="Path_807" data-name="Path 807" d="M1239.183,12.665c1.416.106,2.113-.748,2.63-2.054l.862,1.559.268-.132c-1.251-1.783-1.188-4.159-2.766-5.788l-.5.462c1.328.627,1.654,1.893,1.782,3.213C1241.619,11.543,1240.467,12.17,1239.183,12.665Z" transform="translate(52.734 47.82)"/>
            <path id="Path_808" data-name="Path 808" d="M1237.389,6.062c-.393.983-.763,1.86-.36,2.667Z" transform="translate(46.521 47.318)"/>
            <path id="Path_809" data-name="Path 809" d="M1235.963,10.97c.462,1.541,3.734,2.832,7.585,2.535,4.776-.363,6.324-2.945,6.324-2.945a17.3,17.3,0,0,1-6.228,1.83C1240.2,12.917,1235.963,10.97,1235.963,10.97Z" transform="translate(44.143 59.316)"/>
            <path id="Path_810" data-name="Path 810" d="M1256.6,11.854c-.1-.048-.543.741-1.159.569l-.026-.007a57.8,57.8,0,0,0-5.5-1.786c-.708-.253-1.3-.48-1.614-.638a3.135,3.135,0,0,0-2.967.132c-.279.143-1.328-.359-1.328-.359a1.879,1.879,0,0,0-2.05.26,2.669,2.669,0,0,1-.426.279c-1.294.616-4.6,1.3-5.847,1.889-.407-.18-.539-.506-.62-.469a.192.192,0,0,0-.1.26,1.137,1.137,0,0,0,.4.48l.077.132a.907.907,0,0,1,.136-.026,1.579,1.579,0,0,0,.6.117c.235,0,2.652-.106,4.229-.22a7.634,7.634,0,0,0,1.269-.088,20.252,20.252,0,0,1,2.068-.466l.011-.1a7.034,7.034,0,0,1,1.431.3,7.233,7.233,0,0,1,.9-.117l.081.191a5.135,5.135,0,0,1,2.011-.143c1.071.2,5.648.411,6.7.715a.344.344,0,0,0,.107.007,2.372,2.372,0,0,0,.492.055,1.236,1.236,0,0,0,1.21-.7A.193.193,0,0,0,1256.6,11.854Z" transform="translate(41.448 56.7)"/>
            <path id="Path_811" data-name="Path 811" d="M1293.6,38.706a.69.69,0,0,0-.466-.1c-.568.026-.8-.271-.792-.8.029-1.57.007-3.14.117-4.7.264-3.892.9-7.75.646-11.682a31.656,31.656,0,0,0-1.915-9.746c-.884-2.226-2.047-4.339-3.048-6.518a1.863,1.863,0,0,1-.235-1.291c.205-.451.037-.62-.205-.869s-.7-.547-.657-.745c.118-.583-.3-.66-.6-.84a8.406,8.406,0,0,1-.932-.44,5.907,5.907,0,0,1-.774-.895l.415-.385a3.512,3.512,0,0,1-.473-.392c-.121-.132-.165-.359-.3-.455-.312-.209-.66-.359-1.02-.554l.411-.308c-1.709.213-1.9-1.174-2.534-2.076l-1.346.242v-.583c-.88.227-1.489-1.053-2.465-.392l.356-.668-1.588.381.367-.741-.781.1.264-.77c-.6-.011-1.221.95-1.618-.029-1.173-.059-2.3-.814-3.385,0l.073-1.009-.847.609-.437-1.005c-.172.715-.5.381-.771.2l-.608.756-.122-.055.026-.389a5.263,5.263,0,0,0-1.027-.341,3.915,3.915,0,0,0-.987.165l-.3-.6-.613.48v-.609c-.257.242-.616.792-.833.741-.415-.1-.48.139-.664.392-.275-.4-.557-.469-.807-.022-.3-.514-.3-.514-.719-.205a1.711,1.711,0,0,1-2.223,0,6.868,6.868,0,0,0-.682-.363l-.154.767-.832-.572-1.189.73-.2-.3-.833.165-.121.807c-.4-.334-.624-.3-1.126-.088a9.63,9.63,0,0,1-1.287.378c-.279.073-.565.121-.979.205l-.587-.392c-.627,1.067-1.724,1.034-2.608,1.229l-.5,1.005-.378-.352c-.279.635-.892.363-1.346.5l.077.664c-1.06-.183-.613.737-.811,1.071l-1.5.356-.041.734-.484-.128-.48,1.247L1243.1-.156l.139,1.119h-.664c.037.169.132.356.081.414-.44.5-.844,1.28-1.379,1.394-.961.205-.407.62-.323.928l-1.526,1.489.312.583-.719.165.165.11c-.234.447-.47.895-.7,1.346a1.561,1.561,0,0,0-.121.315c-.135.5-.238,1.009-.4,1.5-.224.671-.5,1.32-.749,1.984a31.062,31.062,0,0,0-1.518,12.706c.184,3.415.5,6.819.788,10.226.118,1.4.312,2.791.5,4.185.059.447.183.884.29,1.386-.5-.147-.9-.242-1.28-.389a1.649,1.649,0,0,0-2.223,1.709,11.17,11.17,0,0,0,1.053,5.036,7.78,7.78,0,0,1,1.119,2.725,16.117,16.117,0,0,0,2.006,5.858,7.672,7.672,0,0,1,.873,3.151c.088,2.311.319,2.593,2.52,3.235a.95.95,0,0,1,.7.726A16.841,16.841,0,0,0,1243,64.1c.469.921.5.968-.165,1.757-.194.227-.363.473-.708.928-.6-.7-1.023-1.284-1.529-1.786-2.935-2.92-6.841-2.3-9.64-.033-3.558,2.876-4.009,6.727-2.139,10.685a5.833,5.833,0,0,0,5.627,3.646,4.053,4.053,0,0,1,2.454.752,18.119,18.119,0,0,0,6.687,3.063,13.835,13.835,0,0,0,10.024-1.038,5.467,5.467,0,0,1,.525-.205c-.048.392-.088.7-.125,1.012a30.957,30.957,0,0,1-1.837,8.572,3.606,3.606,0,0,0-.037,1.827c.158,1,.6,1.17,1.493.664a6.921,6.921,0,0,0,.876-.554c.943-.737,1.856-1.507,2.806-2.234a.962.962,0,0,1,.708-.2,30.9,30.9,0,0,1,2.989.855,1.8,1.8,0,0,1,.818.719,12.27,12.27,0,0,1,.711,1.555c.576-.649.921-1.361,1.464-1.574a4.949,4.949,0,0,1,1.973.106.238.238,0,0,0,.07-.007c1.045-.139,2.1-.257,3.14-.436.583-.1.818.092.932.668.228,1.148.532,2.281.8,3.4,1.262-.051,2.314-1.665,2.674-2.769.147-.447-.176-1.188.594-1.3a7.934,7.934,0,0,1,1.584.059c.18.015.375.147.532.106a1.62,1.62,0,0,0,.771-.348,4.142,4.142,0,0,0,.771-1.06,2.89,2.89,0,0,0,.125-.888h0c-.932-.5-.946-.957-.25-1.794,1.181-1.419,2.292-2.9,3.422-4.357a1.962,1.962,0,0,0,.257-.492,1.185,1.185,0,0,0-.55-1.592c-.9-.506-1.823-.99-2.729-1.5-1.453-.814-2.9-1.64-4.394-2.487a3.8,3.8,0,0,1,.312-.279,39.67,39.67,0,0,0,9.936-9.261c1.519-2.094,3.51-3.95,3.917-6.712.073-.492.451-.583.876-.6a2.172,2.172,0,0,0,2.065-1.287,6.622,6.622,0,0,0,.716-2.912,12.8,12.8,0,0,1,1.548-6.514c.751-1.658,1.526-3.319,2.109-5.043a11.778,11.778,0,0,0,.488-3.253C1295.76,40.433,1294.568,39.616,1293.6,38.706ZM1242.15,70.914c0-.616-.041-1.148-.914-.877-.125.04-.4-.128-.491-.271a5.566,5.566,0,0,0-2.736-2.513,2.108,2.108,0,0,1-.7-.638c-.429-.488-.8-.5-1.129.059a4.944,4.944,0,0,0-.583,1.361.9.9,0,0,0,.733,1.093c.268.059.616-.231,1.045-.411a6,6,0,0,1,2.512,4.446,1.365,1.365,0,0,1-1.493-.7,14.591,14.591,0,0,0-1.834-1.933,12.97,12.97,0,0,1-1.431-1.8c-.345-.55-.626-1.144-1.364-1.06a1.091,1.091,0,0,0-.686.635,1.562,1.562,0,0,0,.513,1.86,7.826,7.826,0,0,1,2.637,3.224,1.468,1.468,0,0,1-.025,1.093c-.261.679-.635,1.309-.983,2.01-.964-.877-1.83-1.654-2.674-2.454a.636.636,0,0,1-.106-.492,1.842,1.842,0,0,0-.943-1.922c-.477-.3-1.188-.048-1.163.484a2.489,2.489,0,0,0,.583,1.46,19.772,19.772,0,0,0,1.944,1.61c.5.422.986.873,1.478,1.313l-.11.253c-.609.154-1.214.348-1.83.451a1.6,1.6,0,0,1-1.445-1.012c-.271-.869-2.545-3.382-2.516-4.655a7.524,7.524,0,0,1,6.3-7.483c2.142-.414,3.727.51,5.293,1.768a6.683,6.683,0,0,1,2.244,4.361A2.334,2.334,0,0,1,1242.15,70.914ZM1238.9,30.8a.48.48,0,0,1,.1-.257c.749-1.012,1.5-2.021,2.249-3.037a18.821,18.821,0,0,0,1.126-1.621.92.92,0,0,0,0-.774,17.343,17.343,0,0,1-1.783-7.692,18.973,18.973,0,0,1,.293-4.589,14.651,14.651,0,0,1,1.984-4.589,18.8,18.8,0,0,1,4.49-4.75,16.022,16.022,0,0,1,2.89-1.786,4.308,4.308,0,0,1,1.354-.216l-.554-.07a3.033,3.033,0,0,1,1.768-.752c.455,0,.9-.506,1.365-.543a5.078,5.078,0,0,1,1.6.319,2.857,2.857,0,0,0,.8.213l-1.221-.88.051-.143a1.765,1.765,0,0,0,.6.092,2.507,2.507,0,0,0,1.023-.374c.466-.37.814-.106,1.185.088s.752.447,1.126.675l.162-.242-1.119-.862c.814-.649.972.6,1.6.55l-.66-.789c.781-.334,1.053.341,1.588.569l-.5-.708.048-.158.829.323c.491-.814,1.115-.58,1.929.774l.04-.829.371.136-.15-.605a1.029,1.029,0,0,1,.726,1.111c0,.022-.169.04-.261.059l.921.825-.172-1.273.106-.029.367.855.125-.037-.422-1.368c.322-.077.322-.077.895.968l-.091-1.034.18-.051.686,1.474.14-.051-.411-1.456c.979-.147,1.181-.022,1.317.822.091.58.154,1.166.238,1.816.723-.847-.07-1.687.048-2.516.568-.11.84.007.854.631a16.315,16.315,0,0,0,.268,1.948c.7-.543.386-1.339.763-1.977l.172.785.418-.7.154.077-.407.957.352.726c.132-.5.272-1.086.462-1.658.022-.062.319-.033.51-.051l-.554,1.64c.491-.436.363-1.372,1.386-1.463l-.524,1.783.165.07.8-1.764c.238.26.238.26-.238,1.816l1.335-1.317.114.066-.367.8.532.778,1.537-1.053.349.554-1.361.9.063.121,1.379-.679.029.253,1.042-.458.037.106-.8.682.117.088,2.223-.312.1.205-.719.561a2.961,2.961,0,0,1,1.012-.227c.3.044.565.323.847.5l-.187.169h.92l.011.092-.8.158-.007.125a1.742,1.742,0,0,0,.546.033,1.463,1.463,0,0,1,1.493.517c1.3,1.4,2.637,2.773,3.826,4.266a15.727,15.727,0,0,1,3.257,6.635,2.663,2.663,0,0,0,.341.653c.037.066.121.121.125.183.018,1.038.015,2.08.055,3.118.007.205.183.407.121.583l-.25,3.694c-.473-.07-.374.55-.458.844-.29,1.012-.477,2.058-.682,3.1a1.574,1.574,0,0,0,0,.679c.187.715.415,1.419.613,2.131.026.092-.041.209-.213.323l-.106-.836a1.47,1.47,0,0,0-.375-.11c-1.926-.066-3.5-1.042-5.127-1.915a13.117,13.117,0,0,0-4.039-1.625,2.7,2.7,0,0,0-.616.033c-.158.007-.411.084-.466.015-.5-.664-1.119-.308-1.709-.246-.462.048-.491.015-.469-.337-.279-.073-.546-.147-.811-.209a.573.573,0,0,0-.26-.015,20.809,20.809,0,0,0-3,.712,5.735,5.735,0,0,0-3.063,2.241,11.89,11.89,0,0,0-.733,1.97c-.062.165-.158.319-.238.48-2.153-1.357-4.3-.862-6.577-.07-.26-.554-.521-1.126-.8-1.691a2.115,2.115,0,0,0-.319-.385c-.085-.1-.257-.187-.253-.271.081-.961-.653-1.038-1.288-1.155-.954-.176-1.922-.271-2.883-.433a4.114,4.114,0,0,1-1.06-.319,12.121,12.121,0,0,0-4.768-.726,4.808,4.808,0,0,0-4.351,2.2,5.187,5.187,0,0,1-3.136,2.109c-.191.055-.414-.007-.6.051-.169.051-.4.158-.458.3-.771,1.86-1.515,3.734-2.215,5.48C1238.894,33.9,1238.89,32.349,1238.9,30.8Zm29.707.785a.935.935,0,0,1,.92-1.32,1.858,1.858,0,0,0,.671-.136,31.073,31.073,0,0,1,3.381-1.177,8.608,8.608,0,0,1,2.45.055c.888.07,1.772.224,2.663.29.257.018.521-.18.689.194.033.077.25.1.385.106,1.06.011,2.124.011,3.188.015a1.665,1.665,0,0,1,.2.04l-.994.227v.205a2.171,2.171,0,0,0,.771.077c1.445-.363,1.775-.275,2.34,1.273a6.689,6.689,0,0,1-.117,4.46c-.256.781-.682,1.508-.958,2.285a5.832,5.832,0,0,1-2.8,2.934,3.468,3.468,0,0,1-1.1.33,13.146,13.146,0,0,1-8.249-.631,5,5,0,0,1-2.469-2.366,3.382,3.382,0,0,1-.249-1.926A10.776,10.776,0,0,0,1268.6,31.583Zm-9.075,5.575c.458.447.242.8.029,1.214a5.857,5.857,0,0,1-3.033,2.887,10.754,10.754,0,0,1-8.018.209,5.368,5.368,0,0,1-2.791-2.586,9.113,9.113,0,0,1-.983-7.266,4.716,4.716,0,0,1,2.058-2.843l-.081.367c1.669-.227,3.353-.517,5.051-.66a12.258,12.258,0,0,1,2.318.246,2.118,2.118,0,0,0,.609,0c.646-.128,1.24-.238,1.691.462.087.136.609-.007.917-.022l-.1.139a6.025,6.025,0,0,0,1.823.847,1.7,1.7,0,0,1,1.306.818c.11.15.172.514.081.609a5.32,5.32,0,0,0-1,2.887,8.222,8.222,0,0,0-.14,1.72A1.483,1.483,0,0,0,1259.529,37.158Zm-21.395,16.935a47.918,47.918,0,0,1-1.655-4.611c-.187-.627.316-1.375-.176-2.036a1.246,1.246,0,0,1-.2-.708c.447-.877-.43-1.68-.122-2.747.675,2.421,1.3,4.673,1.933,6.929l.173-.026-.1-.726a5.257,5.257,0,0,1,1.167,4.17l-.627-2.546-.242.062,1.181,4.633A22.78,22.78,0,0,1,1238.134,54.093Zm-2.4-12.445.389-.121a13.764,13.764,0,0,1,.964,1.852,11.884,11.884,0,0,1,.367,1.937l.168-.536.2.026c-.074.525-.158,1.049-.224,1.577-.07.547-.121,1.1-.22,1.665C1237.063,45.862,1235.864,43.885,1235.739,41.648Zm3.572,16.99a3.234,3.234,0,0,1,.341-2.028,2.834,2.834,0,0,0,.209-1.522,9.142,9.142,0,0,0-.66-3.921c-.349-.778-.708-1.555-.994-2.355a2.312,2.312,0,0,1,.348-2.593.454.454,0,0,0,.037-.381c-.48-1.269-.961-2.542-1.479-3.8a2.09,2.09,0,0,0-.58-.759c-.649-.539-1.35-.363-1.4.462a26.5,26.5,0,0,0,.194,3.606,5.088,5.088,0,0,0,.194.8l-.246.1c-.458-1.486-.979-2.953-1.36-4.457a1.842,1.842,0,0,1,.833-1.992,1.459,1.459,0,0,1,1.8.073c.825.616,1.584,1.324,2.354,2.014a.783.783,0,0,1,.147.447c.261,1.8.554,3.595.751,5.4.283,2.542.44,5.1.749,7.64.19,1.585.557,3.151.847,4.728.018.106.025.213.04.334C1239.96,60.244,1239.264,59.844,1239.311,58.637Zm6.313,10.857c-.371-.532-1.383-.451-1.31-1.423.051-.679-.462-1.889-.627-1.79a2.62,2.62,0,0,1,4.21-.741,1.837,1.837,0,0,1-.612,2.883,15.4,15.4,0,0,0-1.622.921l.022.169Zm8.7,7.24a7.527,7.527,0,0,1-6.283-.631c-.2-.114-.385-.257-.576-.389a3.689,3.689,0,0,1-.994-5.018c.36-.569.7-.583,1.284-.048,1.32,1.225,2.615,2.476,3.962,3.672.708.627,1.485,1.17,2.251,1.728a2.624,2.624,0,0,0,.672.253Zm8.238,6.76c-.4,1.467-.8,2.931-1.214,4.394a4.016,4.016,0,0,1-.224.576c-.216.48-.444.954-.7,1.511a6.03,6.03,0,0,1-1.46-.811c-.216-.205-.18-.8-.088-1.181.234-.957.6-1.878.843-2.828.191-.745.279-1.519.415-2.278.062-.352.121-.583.594-.726.5-.154.888-.675,1.357-1.064.088.268.088.58.238.686C1263.032,82.281,1262.724,82.893,1262.559,83.495Zm-.323-3.7c-.374.22-.733.466-1.1.7-.033-.04-.073-.062-.084-.1-.469-1.555-.469-1.555,1.185-1.427.389.029.778.066,1.313.114C1263.032,79.365,1262.628,79.566,1262.235,79.794Zm6.823,10.49c-1.273.194-2.557.326-3.844.425-.106.007-.352-.374-.352-.576q.028-3.131.125-6.265c.055-1.816-.069-1.35,1.28-2.476.778.569.99,2.212,2.538,1.137a3.964,3.964,0,0,1,.122.521c.183,2.186.37,4.372.514,6.562C1269.454,89.836,1269.223,90.258,1269.058,90.284Zm-4.039-11.1c1.034,0,2.187,0,3.338.007a.4.4,0,0,1,.268.172,1.85,1.85,0,0,1-.738,2.505Zm11.928,9.217c-.041.3-.088.594-.132.891s-.081.594-.1.891a.809.809,0,0,0,.063.33c.041.11.088.224.121.334.081-.07.165-.139.246-.209s.165-.143.25-.209c.139-.106.29-.2.44-.3l.139-.1c-.143.183-.275.37-.429.543-.081.1-.162.2-.242.308a3.8,3.8,0,0,1-.5.591.958.958,0,0,1-.293.183.64.64,0,0,1-.646-.07,1.111,1.111,0,0,1-.194-.18,1.92,1.92,0,0,1-.154-.194c-.052-.073-.1-.147-.147-.22-.037-.055-.073-.11-.106-.161l1.548-2.468Zm-.811-4.941c.315.873-1.519,3.041-1.519,3.041l-1.012-4.053S1275.862,82.706,1276.137,83.465Zm11.84-26.053c-.488,2.824-.994,5.663-2.6,8.132-.389.6-1.063,1.06-1.313,1.7-.352.895-1.25,1.218-1.7,2.054a13.707,13.707,0,0,1-2.575,3.011,20.875,20.875,0,0,1-2.593,2.168c-.983.7-2.043,1.291-3.066,1.937a5.9,5.9,0,0,0-.935.631c-.268.246-.514.3-.661-.015-.062-.136.107-.5.268-.6.979-.635,1.992-1.218,2.989-1.834a5.6,5.6,0,0,0,.569-.462c-.6.048-4.757,1.742-8.121,2.138-9.765.425-10.74-2.091-11.331-2.718-.106-.11-.352-.22-.455-.172a.934.934,0,0,0-.326.451c-.151.33-2.637-.44-2.7-.4.194.3,1.3,1.519,1.5,1.808.4.565-5.117-3.741-5.2-3.9s-1.489-1.68-.95-2.307c1.39-1.618.939-4.592-1.445-5.084a4.136,4.136,0,0,0-2.887.183c-.623.319-.8-.194-.942-.572a28.757,28.757,0,0,1-1.221-3.448c-.517-2.072-.983-4.163-1.328-6.272-.275-1.68-.272-3.4-.5-5.095-.414-3.011-.931-6.012-1.361-9.023a3.428,3.428,0,0,1,.136-1.695c.749-1.834,1.6-3.628,2.41-5.436a1.548,1.548,0,0,1,.206-.268,1.808,1.808,0,0,1,1.229,1.511,41.582,41.582,0,0,0,1.672,5.6,5.457,5.457,0,0,0,1.764,1.863,7.843,7.843,0,0,0,4.376,1.713c2.883.227,5.689-.037,7.941-2.164a11.306,11.306,0,0,0,1.266-1.555A25.034,25.034,0,0,0,1262,36.575a9.285,9.285,0,0,0,.562-2.186c-.11,2.461-.22,4.794-.326,7.13l.15.037c.047-.059.131-.114.131-.176.088-1.544.18-3.085.243-4.629.073-1.662.11-3.323.187-4.985.007-.183.117-.488.238-.517a6.058,6.058,0,0,1,2.058-.389c.968.1,1.188.58,1.218,1.585.088,3.272.209,6.54.323,9.812a1.062,1.062,0,0,0,.235.624v-5.5c.554.224,1.027.279,1.317.95a6.27,6.27,0,0,0,3.264,3.316,12.91,12.91,0,0,0,7.255,1.2,8.574,8.574,0,0,0,7.391-6.386c.352-1.111.48-2.292.774-3.422a4.87,4.87,0,0,1,.683-1.1,25.5,25.5,0,0,1,2.039,3.158,4.658,4.658,0,0,1,.11,2.182c-.18,2.322-.422,4.636-.634,6.954-.07.781-.047,1.577-.187,2.344-.172.954-.564,1.871-.689,2.824-.168,1.309-.176,2.637-.249,3.954a.372.372,0,0,0,.059.194c.018.029.077.037.165.073l.238-2.307.176.022C1288.487,53.355,1288.322,55.4,1287.977,57.412Zm1.68-8.689.242.026-.213,2.432-.337-.033Zm1.335,8.818a2.8,2.8,0,0,1-1.841,2.846c-.664.26-.862.125-.785-.565.15-1.35.319-2.7.484-4.046a13.384,13.384,0,0,0,.183-1.471,4.691,4.691,0,0,1,1.17-2.637,3.759,3.759,0,0,0,.727-3.466,10.259,10.259,0,0,1-.646-1.937,4.042,4.042,0,0,1,.286-1.6,8.314,8.314,0,0,1,.646-1.21,8.7,8.7,0,0,1,.8,4.673,16.174,16.174,0,0,1-1.349,4.412,25.657,25.657,0,0,0-1.027,3.29.833.833,0,0,0,.158.613c.532-1.456.7-3.026,1.724-4.409A19.476,19.476,0,0,0,1290.992,57.541Zm2.6-13.535a16.6,16.6,0,0,1-.961,5.135c-.2.583-.312,1.2-.466,1.8l-.256-.073c.154-.877.352-1.75.455-2.63a8.063,8.063,0,0,0-.741-4.647c-.2-.4-.213-.7.125-.972.543-.429,1.1-.833,1.658-1.247l.191.161C1293.593,42.363,1293.607,43.184,1293.589,44.006Zm.223,2.85c.055-1.893.106-3.752.154-5.616.018-.6-.4-.547-.763-.458a4.052,4.052,0,0,0-2.505,1.929,5.569,5.569,0,0,1-.9,1.229c.066-.767.132-1.537.2-2.3.018-.183.051-.367.062-.55.074-1.177.572-1.662,1.783-1.731a2.909,2.909,0,0,1,3.155,3A9.7,9.7,0,0,1,1293.813,46.856Z" transform="translate(22.199 8.879)"/>
        </g>
    </g>
</svg>