<svg xmlns="http://www.w3.org/2000/svg" width="279.214" height="57" viewBox="0 0 279.214 57">
    <g id="Group_2029" data-name="Group 2029" transform="translate(-40.692 -402.354)">
        <g id="Group_2027" data-name="Group 2027" transform="translate(40.692 406.551)">
            <g id="Group_2005" data-name="Group 2005" transform="translate(1.129)">
                <g id="Group_1984" data-name="Group 1984" transform="translate(0 3.966)">
                    <rect id="Rectangle_551" data-name="Rectangle 551" width="46.71" height="1.518" fill="#ff7f30"/>
                </g>
                <g id="Group_1985" data-name="Group 1985" transform="translate(133.091 3.966)">
                    <rect id="Rectangle_552" data-name="Rectangle 552" width="46.708" height="1.518" fill="#ff7f30"/>
                </g>
                <g id="Group_1986" data-name="Group 1986" transform="translate(49.523 0.103)">
                    <path id="Path_931" data-name="Path 931" d="M105.528,407.07a2.351,2.351,0,0,0-1.376-.395,2.392,2.392,0,0,0-1.373.395,4.713,4.713,0,0,0-.67,5.851,2.848,2.848,0,0,0,4.1,0,4.7,4.7,0,0,0-.677-5.851Zm-.408,4.756a1.112,1.112,0,0,1-.968.515,1.124,1.124,0,0,1-.961-.515,2.959,2.959,0,0,1-.343-1.532,2.785,2.785,0,0,1,.663-1.938.927.927,0,0,1,.641-.228.946.946,0,0,1,.65.228,2.785,2.785,0,0,1,.663,1.938A2.887,2.887,0,0,1,105.12,411.826Z" transform="translate(-101.388 -406.675)" fill="#ff7f30"/>
                </g>
                <g id="Group_1987" data-name="Group 1987" transform="translate(55.653 2.272)">
                    <path id="Path_932" data-name="Path 932" d="M109.744,409.274c-.685,0-1,.3-1,.9,0,.527-.007,5.569-.007,5.569,0,.58.259.875.709.875.5,0,.743-.345.743-.926v-1.722a4.224,4.224,0,0,0,2.084-.623,1.756,1.756,0,0,0,.638-1.415C112.907,409.932,111.294,409.274,109.744,409.274Zm.441,3.3v-1.687s1.281.04,1.281.86C111.466,412.59,110.185,412.576,110.185,412.576Z" transform="translate(-108.733 -409.274)" fill="#ff7f30"/>
                </g>
                <g id="Group_1988" data-name="Group 1988" transform="translate(60.006 0.603)">
                    <path id="Path_933" data-name="Path 933" d="M117.718,409.061c-.138-.021-.568-.021-.837-.021,0-.239,0-.431-.007-.574-.019-.92-.349-1.193-.741-1.193s-.734.273-.749,1.193c0,.144,0,.335-.006.574-.262,0-.7,0-.827.021a.644.644,0,0,0-.6.663c0,.442.29.625.7.668.224.024.5.046.7.059-.013,1.176-.025,2.449-.025,2.7,0,.662.21.864.8.864s.8-.2.8-.864c0-.246-.023-1.52-.035-2.7.21-.013.487-.035.714-.059.41-.043.7-.225.7-.668A.646.646,0,0,0,117.718,409.061Z" transform="translate(-113.95 -407.273)" fill="#ff7f30"/>
                </g>
                <g id="Group_1989" data-name="Group 1989" transform="translate(112.421 0.603)">
                    <path id="Path_934" data-name="Path 934" d="M180.513,409.061c-.12-.021-.548-.021-.817-.021-.007-.239-.013-.431-.013-.574-.013-.92-.356-1.193-.743-1.193s-.734.273-.746,1.193c0,.144,0,.335-.013.574-.262,0-.694,0-.822.021a.643.643,0,0,0-.6.663c0,.442.3.625.7.668.227.024.507.046.7.059-.013,1.176-.03,2.449-.03,2.7,0,.662.214.864.807.864s.8-.2.8-.864c0-.246-.01-1.52-.023-2.7.2-.013.471-.035.7-.059.412-.043.7-.225.7-.668A.64.64,0,0,0,180.513,409.061Z" transform="translate(-176.759 -407.273)" fill="#ff7f30"/>
                </g>
                <g id="Group_1990" data-name="Group 1990" transform="translate(65.054 0.175)">
                    <path id="Path_935" data-name="Path 935" d="M121.382,407.494a.691.691,0,0,1-.712.652.572.572,0,0,1-.412-.137.781.781,0,0,1-.259-.592.643.643,0,0,1,.187-.5.578.578,0,0,1,.431-.154A.8.8,0,0,1,121.382,407.494Z" transform="translate(-119.999 -406.761)" fill="#ff7f30"/>
                </g>
                <g id="Group_1991" data-name="Group 1991" transform="translate(65.009 2.204)">
                    <path id="Path_936" data-name="Path 936" d="M120.621,414.232c-.532,0-.676-.511-.676-1.2s.019-2.32.019-3,.285-.841.671-.841.669.166.669.841.014,2.295.014,3-.139,1.2-.677,1.2Z" transform="translate(-119.945 -409.192)" fill="#ff7f30"/>
                </g>
                <g id="Group_1992" data-name="Group 1992" transform="translate(97.783 0.175)">
                    <path id="Path_937" data-name="Path 937" d="M160.617,407.494a.7.7,0,0,1-.716.652.608.608,0,0,1-.425-.137.778.778,0,0,1-.259-.592.7.7,0,0,1,.187-.5.6.6,0,0,1,.438-.154A.8.8,0,0,1,160.617,407.494Z" transform="translate(-159.218 -406.761)" fill="#ff7f30"/>
                </g>
                <g id="Group_1993" data-name="Group 1993" transform="translate(97.741 2.204)">
                    <path id="Path_938" data-name="Path 938" d="M159.847,414.232c-.54,0-.68-.511-.68-1.2s.021-2.32.021-3,.287-.841.679-.841c.368,0,.657.166.657.841s.02,2.295.02,3-.141,1.2-.677,1.2Z" transform="translate(-159.167 -409.192)" fill="#ff7f30"/>
                </g>
                <g id="Group_1994" data-name="Group 1994" transform="translate(77.071 0.111)">
                    <path id="Path_939" data-name="Path 939" d="M135.144,413.829c-.591,0-.745-.507-.745-1.208s.013-4.43.013-5.1.313-.835.738-.835.742.16.742.835.02,4.407.02,5.1-.154,1.208-.749,1.208Z" transform="translate(-134.399 -406.684)" fill="#ff7f30"/>
                </g>
                <g id="Group_1995" data-name="Group 1995" transform="translate(67.016 2.625)">
                    <path id="Path_940" data-name="Path 940" d="M126.222,410.828c0-.6-.93-1.131-1.611-1.131a2.286,2.286,0,0,0-1.72.745,2.611,2.611,0,0,0-.542,1.647,2.144,2.144,0,0,0,2.245,2.244,1.989,1.989,0,0,0,1.189-.307.89.89,0,0,0,.484-.741.523.523,0,0,0-.49-.576c-.354,0-.534.322-1.107.322a.916.916,0,0,1-.942-.951c0-.469.209-1.043.869-1.043.577,0,.628.383,1.033.383A.551.551,0,0,0,126.222,410.828Z" transform="translate(-122.35 -409.697)" fill="#ff7f30"/>
                </g>
                <g id="Group_1996" data-name="Group 1996" transform="translate(71.506 2.667)">
                    <path id="Path_941" data-name="Path 941" d="M132.639,413.242a15.107,15.107,0,0,1-.569-1.411,2.78,2.78,0,0,0-.412-1.213,2.033,2.033,0,0,0-1.621-.871,2.287,2.287,0,0,0-2.307,2.458,1.935,1.935,0,0,0,2.069,2.112,1.814,1.814,0,0,0,1.565-.633c.184.254.532.814,1.095.475C132.727,414.008,132.763,413.583,132.639,413.242Zm-1.9-1.205c-.033.572-.4.991-.817.976a1.215,1.215,0,0,1-.7-.24,1.086,1.086,0,0,1-.225-.736.912.912,0,0,1,.948-.957.694.694,0,0,1,.565.218A1.007,1.007,0,0,1,130.737,412.037Z" transform="translate(-127.73 -409.747)" fill="#ff7f30"/>
                </g>
                <g id="Group_1997" data-name="Group 1997" transform="translate(92.117 2.667)">
                    <path id="Path_942" data-name="Path 942" d="M157.35,413.242a12.28,12.28,0,0,1-.575-1.411,2.748,2.748,0,0,0-.41-1.213,2.045,2.045,0,0,0-1.622-.871,2.292,2.292,0,0,0-2.315,2.458,1.941,1.941,0,0,0,2.079,2.112,1.8,1.8,0,0,0,1.561-.633c.189.254.54.814,1.1.475C157.444,414.008,157.473,413.583,157.35,413.242Zm-1.909-1.205a.912.912,0,0,1-.81.976,1.212,1.212,0,0,1-.705-.24,1.09,1.09,0,0,1-.226-.736.915.915,0,0,1,.945-.957.722.722,0,0,1,.576.218A1,1,0,0,1,155.441,412.037Z" transform="translate(-152.428 -409.747)" fill="#ff7f30"/>
                </g>
                <g id="Group_1998" data-name="Group 1998" transform="translate(81.584 0.038)">
                    <path id="Path_943" data-name="Path 943" d="M145.2,412.353c0,.81-1.242,1.582-2.291,1.582a3.312,3.312,0,0,1-2.36-.94,3.746,3.746,0,0,1-.745-2.654,3.855,3.855,0,0,1,1.508-3.354,2.656,2.656,0,0,1,1.453-.391,2.105,2.105,0,0,1,2.288,1.851.623.623,0,0,1-.7.58c-.552,0-.6-.88-1.546-.88-1.067,0-1.428,1.356-1.428,2.441,0,.693.339,1.8,1.487,1.8.824,0,1.017-.734,1.692-.734A.7.7,0,0,1,145.2,412.353Z" transform="translate(-139.806 -406.597)" fill="#ff7f30"/>
                </g>
                <g id="Group_1999" data-name="Group 1999" transform="translate(87.552)">
                    <path id="Path_944" data-name="Path 944" d="M149.053,409.262a1.9,1.9,0,0,0-.726.122c0-.917,0-1.725,0-2,0-.678-.292-.831-.677-.831s-.669.153-.669.831-.02,4.549-.02,5.247.136,1.205.689,1.205h.013c.542,0,.677-.509.677-1.205v-.915c0-.85.191-1.062.564-1.062h.111c.373,0,.618.212.618,1.062s.013.915.013.915c0,.7.128,1.205.644,1.205h.02c.516,0,.638-.5.638-1.192v-1.29A1.85,1.85,0,0,0,149.053,409.262Z" transform="translate(-146.958 -406.551)" fill="#ff7f30"/>
                </g>
                <g id="Group_2000" data-name="Group 2000" transform="translate(99.873 2.292)">
                    <path id="Path_945" data-name="Path 945" d="M162.44,409.3c-.4,0-.7.157-.7.831s-.019,2.257-.019,2.955.153,1.205.705,1.205h.026c.568,0,.709-.509.709-1.205v-1.094c0-.843.2-1.06.6-1.06h.105c.386,0,.644.217.644,1.06s.006,1.094.006,1.094c0,.7.141,1.205.675,1.205h.022c.538,0,.662-.5.662-1.192v-1.29a2.678,2.678,0,0,0-.446-1.7,1.935,1.935,0,0,0-1.324-.607,1.52,1.52,0,0,0-1.036.437A.63.63,0,0,0,162.44,409.3Z" transform="translate(-161.722 -409.297)" fill="#ff7f30"/>
                </g>
                <g id="Group_2001" data-name="Group 2001" transform="translate(116.859 2.353)">
                    <path id="Path_946" data-name="Path 946" d="M185.886,409.832a2.131,2.131,0,0,0-1.364-.461,2.443,2.443,0,0,0-2.444,2.562,2.481,2.481,0,0,0,.6,1.7,2.314,2.314,0,0,0,1.74.748,2.483,2.483,0,0,0,1.584-.5,2.664,2.664,0,0,0,.85-1.935A2.7,2.7,0,0,0,185.886,409.832Zm-.809,2.848a1.046,1.046,0,0,1-.632.194.91.91,0,0,1-.7-.3,1.016,1.016,0,0,1-.243-.684.982.982,0,0,1,.974-1.029.87.87,0,0,1,.552.183,1.1,1.1,0,0,1,.385.858A1.052,1.052,0,0,1,185.077,412.68Z" transform="translate(-182.077 -409.371)" fill="#ff7f30"/>
                </g>
                <g id="Group_2002" data-name="Group 2002" transform="translate(107.045 0.038)">
                    <path id="Path_947" data-name="Path 947" d="M172.892,406.6a3.059,3.059,0,0,1,2.091.709,1.273,1.273,0,0,1,.391.846.6.6,0,0,1-.557.534c-.692,0-.593-.749-2.011-.749a.888.888,0,0,0-1,.818c0,.9,1.75.4,2.743.972a1.838,1.838,0,0,1,1.077,1.931c0,1.3-1.252,2.214-2.879,2.214a2.288,2.288,0,0,1-2.428-1.809.653.653,0,0,1,.72-.666c.94,0,.577,1.1,1.816,1.1a1.475,1.475,0,0,0,.865-.234.818.818,0,0,0,.377-.719c0-.534-.406-.713-.959-.816-.437-.082-.963-.082-1.444-.215a1.774,1.774,0,0,1-1.363-1.813,2.036,2.036,0,0,1,.764-1.636A3.022,3.022,0,0,1,172.892,406.6Z" transform="translate(-170.316 -406.597)" fill="#ff7f30"/>
                </g>
                <g id="Group_2003" data-name="Group 2003" transform="translate(122.243 2.109)">
                    <path id="Path_948" data-name="Path 948" d="M191.2,409.348a1.808,1.808,0,0,0-1.19.378.644.644,0,0,0-.723-.648c-.425,0-.744.183-.744.888,0,.725-.012,2.383-.012,3.119s.154,1.281.736,1.281h.033c.588,0,.742-.539.742-1.281,0-.4.018-1.121.013-1.777a1.4,1.4,0,0,1,1.1-.61c.391,0,.562.236,1,.236a.561.561,0,0,0,.5-.564A1.348,1.348,0,0,0,191.2,409.348Z" transform="translate(-188.528 -409.078)" fill="#ff7f30"/>
                </g>
                <g id="Group_2004" data-name="Group 2004" transform="translate(126.355 2.448)">
                    <path id="Path_949" data-name="Path 949" d="M197.2,412.73c-.439,0-.729.267-1.445.267-.483,0-.966-.21-.966-.58.088,0,.6.027,1.112.027a4.377,4.377,0,0,0,1.538-.168,1.007,1.007,0,0,0,.354-.8,1.816,1.816,0,0,0-.664-1.484,2.253,2.253,0,0,0-1.512-.507,2.077,2.077,0,0,0-1.359.472,2.646,2.646,0,0,0-.8,1.981,2.059,2.059,0,0,0,2.334,2.342c.532,0,1.921-.213,1.921-1.051A.484.484,0,0,0,197.2,412.73Zm-1.38-2.061a.845.845,0,0,1,.749.613H194.89A.916.916,0,0,1,195.824,410.668Z" transform="translate(-193.456 -409.485)" fill="#ff7f30"/>
                </g>
            </g>
            <g id="Group_2026" data-name="Group 2026" transform="translate(0 11.572)">
                <g id="Group_2014" data-name="Group 2014" transform="translate(125.497 3.492)">
                    <g id="Group_2009" data-name="Group 2009">
                        <g id="Group_2006" data-name="Group 2006">
                            <path id="Path_950" data-name="Path 950" d="M206.941,427.53c-1.607-1.982-4.411-2.928-7.244-2.928a8.922,8.922,0,0,0-5.96,2.178,8.167,8.167,0,0,0-2.661,6.2c0,2.529.634,5.152,2.528,6.634a7.953,7.953,0,0,0,5.55,1.747c3.346,0,5.095-.111,6.841-1.438,2.274-1.734,2.64-4.732,2.64-6.944A8.625,8.625,0,0,0,206.941,427.53Zm-3.906,8.543a4.762,4.762,0,0,1-3.176,1.081,4.4,4.4,0,0,1-3.24-1.271,3.777,3.777,0,0,1-.842-2.519,3.7,3.7,0,0,1,1.113-2.739,4.351,4.351,0,0,1,2.948-1.071,4.433,4.433,0,0,1,2.857.809,3.974,3.974,0,0,1,1.22,2.978A3.75,3.75,0,0,1,203.034,436.073Z" transform="translate(-191.075 -424.602)" fill="#ff7f30"/>
                        </g>
                        <g id="Group_2007" data-name="Group 2007" transform="translate(20.489 0.134)">
                            <path id="Path_951" data-name="Path 951" d="M221.873,431.815h-1.238s-.008-1.949-.008-4.157-1.045-2.9-2.522-2.9c-1.993,0-2.478,1.1-2.478,2.994v13.32a3.419,3.419,0,0,0,.567,2.124,2.425,2.425,0,0,0,1.918.911,2.594,2.594,0,0,0,2.128-1.179,5.814,5.814,0,0,0,.4-2.952v-3.708h1.2c.917,0,3.113.057,3.113-2.3C224.947,431.763,222.76,431.815,221.873,431.815Z" transform="translate(-215.627 -424.763)" fill="#ff7f30"/>
                        </g>
                        <g id="Group_2008" data-name="Group 2008" transform="translate(3.502 18.697)">
                            <path id="Path_952" data-name="Path 952" d="M215.167,453.5h-14.72c-.005-.114-.119-3.672-.221-4.507-.087-.724-.452-1.984-2.525-1.984a2.156,2.156,0,0,0-2.429,2.109c0,.775.033,4.679.033,6.473s1.842,2.489,3.711,2.489h1.778l14.462-.005c2,0,2.633-.956,2.633-2.307C217.889,453.941,216.887,453.5,215.167,453.5Z" transform="translate(-195.271 -447.007)" fill="#ff7f30"/>
                        </g>
                    </g>
                    <g id="Group_2013" data-name="Group 2013" transform="translate(29.742 0.279)">
                        <g id="Group_2010" data-name="Group 2010" transform="translate(0 0.74)">
                            <path id="Path_953" data-name="Path 953" d="M226.715,428.443c0-.953.177-2.62,2.8-2.62,3.734,0,8.521.023,9.615.023,1.934,0,3.711.993,3.711,4s-.027,7.2-.027,8.848-.736,3.4-2.544,3.4-2.564-1.509-2.564-3.9-.137-6.047-.137-6.518a.865.865,0,0,0-.851-.773c-.867,0-6.308-.128-7-.128S226.715,431,226.715,428.443Z" transform="translate(-226.715 -425.823)" fill="#ff7f30"/>
                        </g>
                        <g id="Group_2011" data-name="Group 2011" transform="translate(17.415)">
                            <path id="Path_954" data-name="Path 954" d="M254.525,424.936c-2.336,0-2.54,2.03-2.54,3.512v.022h-1.324c-.884,0-3.079-.043-3.079,2.156,0,2.362,2.206,2.3,3.119,2.3h1.283v1.356h-1.324c-.884,0-3.079-.056-3.079,2.152,0,2.358,2.206,2.3,3.119,2.3h1.283v1.169c0,1.106.968,2.778,2.423,2.778,1.3,0,2.391-1,2.391-2.857V428.01C256.8,427.011,256.864,424.936,254.525,424.936Z" transform="translate(-247.583 -424.936)" fill="#ff7f30"/>
                        </g>
                        <g id="Group_2012" data-name="Group 2012" transform="translate(3.22 17.852)">
                            <path id="Path_955" data-name="Path 955" d="M250.56,447.4c-2.014-.84-5.553-1.076-8.4-1.076s-6.389.235-8.4,1.076a4.717,4.717,0,0,0-3.18,4.669,4.526,4.526,0,0,0,2.47,4.319c2.12,1.19,5.649,1.43,9.113,1.43s7-.24,9.115-1.43a4.525,4.525,0,0,0,2.468-4.319A4.709,4.709,0,0,0,250.56,447.4Zm-3.42,5.947a28.43,28.43,0,0,1-9.8,0c-.967-.3-1.326-.724-1.326-1.278,0-.514.359-1.069,1.709-1.382a32.6,32.6,0,0,1,9.036,0c1.356.313,1.717.868,1.717,1.382C248.474,452.627,248.109,453.053,247.14,453.35Z" transform="translate(-230.574 -446.328)" fill="#ff7f30"/>
                        </g>
                    </g>
                </g>
                <g id="Group_2023" data-name="Group 2023" transform="translate(0 3.365)">
                    <g id="Group_2017" data-name="Group 2017" transform="translate(0 0.411)">
                        <g id="Group_2015" data-name="Group 2015" transform="translate(0 21.909)">
                            <path id="Path_956" data-name="Path 956" d="M65.732,455.864c2.049,0,2.682-.978,2.682-2.353,0-1.867-1.021-2.316-2.775-2.316H43.513a3.154,3.154,0,0,0-1.974.531,2.274,2.274,0,0,0-.846,1.788,2.421,2.421,0,0,0,1.1,1.984,5.378,5.378,0,0,0,2.736.366Z" transform="translate(-40.692 -451.195)" fill="#ff7f30"/>
                        </g>
                        <g id="Group_2016" data-name="Group 2016" transform="translate(2.446)">
                            <path id="Path_957" data-name="Path 957" d="M63.718,426.879c-2.058-1.39-5.4-1.937-8.336-1.937s-6.266.547-8.331,1.937c-2.508,1.7-3.428,4.526-3.428,7.338a9.081,9.081,0,0,0,3.428,7.3c2.1,1.528,5.257,1.972,8.331,1.972s6.235-.444,8.336-1.972a9.048,9.048,0,0,0,3.427-7.3C67.145,431.4,66.227,428.576,63.718,426.879Zm-3.871,10.787a8.679,8.679,0,0,1-4.465.933,8.637,8.637,0,0,1-4.45-.933,4.106,4.106,0,0,1-1.839-3.449,3.834,3.834,0,0,1,1.839-3.466,9.379,9.379,0,0,1,4.45-.917,9.475,9.475,0,0,1,4.465.917,3.855,3.855,0,0,1,1.836,3.466A4.111,4.111,0,0,1,59.847,437.666Z" transform="translate(-43.623 -424.942)" fill="#ff7f30"/>
                        </g>
                    </g>
                    <g id="Group_2022" data-name="Group 2022" transform="translate(31.5)">
                        <g id="Group_2018" data-name="Group 2018" transform="translate(0.917)">
                            <path id="Path_958" data-name="Path 958" d="M79.539,427.65c-.023-1.818.315-3.03,2.594-3.13,1.345-.062,4.4-.1,6.125-.041,1.871.071,3.473.5,3.446,2.309a2.2,2.2,0,0,1-2.384,2.048h-4.73V431.7h3.28a10.9,10.9,0,0,1,3.086.369,1.8,1.8,0,0,1,1.112,1.61,1.511,1.511,0,0,1-1.262,1.64,10.7,10.7,0,0,1-3.129.407c-1.169,0-3,.058-4.469-.012-2.791-.131-3.664-.414-3.664-3.75C79.545,428.609,79.539,427.65,79.539,427.65Z" transform="translate(-79.538 -424.45)" fill="#ff7f30"/>
                        </g>
                        <g id="Group_2019" data-name="Group 2019" transform="translate(14.414 0.089)">
                            <path id="Path_959" data-name="Path 959" d="M95.712,427.759c-.021-1.818.315-3.027,2.6-3.132,1.339-.06,4.4-.1,6.128-.039,1.864.069,3.469.5,3.437,2.309a2.195,2.195,0,0,1-2.384,2.041h-4.73v2.871h3.282a11.006,11.006,0,0,1,3.085.366,1.8,1.8,0,0,1,1.112,1.608,1.528,1.528,0,0,1-1.26,1.649,11.048,11.048,0,0,1-3.13.4c-1.167,0-3,.054-4.47-.013-2.784-.134-3.664-.406-3.664-3.76S95.712,427.759,95.712,427.759Z" transform="translate(-95.711 -424.556)" fill="#ff7f30"/>
                        </g>
                        <g id="Group_2020" data-name="Group 2020" transform="translate(0 13.28)">
                            <path id="Path_960" data-name="Path 960" d="M103.755,444.632c1.878,0,2.458-.9,2.458-2.149,0-1.7-.934-2.12-2.539-2.12H81.019a2.9,2.9,0,0,0-1.812.49,2.077,2.077,0,0,0-.769,1.63,2.213,2.213,0,0,0,1.008,1.816,4.879,4.879,0,0,0,2.493.344Z" transform="translate(-78.439 -440.363)" fill="#ff7f30"/>
                        </g>
                        <g id="Group_2021" data-name="Group 2021" transform="translate(1.633 18.961)">
                            <path id="Path_961" data-name="Path 961" d="M105.076,449.746c-.069-2.273-2.475-2.4-3.385-2.513s-4.026-.044-9.186-.044c-1.448,0-6.23.034-8.338,0s-3.369.716-3.576,1.924a27.366,27.366,0,0,0-.085,5.872c.132,2.43,1.1,2.46,2.293,2.52s7.862.056,9.855.056,7.547.123,9.475.043,2.286-.224,2.661-1.586A23.441,23.441,0,0,0,105.076,449.746ZM99.6,453.49c-1.323,0-3.725-.065-6.943-.065H86.2c-.139,0-.527.029-.727.029-.275,0-.42.043-.42-.648a6.852,6.852,0,0,1,.078-1.25c.044-.227.295-.2.8-.2H98.406c.725,0,1.848-.187,1.848.776C100.253,453.071,100.3,453.49,99.6,453.49Z" transform="translate(-80.396 -447.171)" fill="#ff7f30"/>
                        </g>
                    </g>
                </g>
                <g id="Group_2025" data-name="Group 2025" transform="translate(62.815)">
                    <g id="Group_2024" data-name="Group 2024">
                        <path id="Path_962" data-name="Path 962" d="M119.53,421.566a2.411,2.411,0,0,1,1.339-.661,11.7,11.7,0,0,1,1.966-.144h14.08c.493,0,1.055-.009,1.682-.028a7.843,7.843,0,0,1,1.8.144,4.242,4.242,0,0,1,1.51.6,2.4,2.4,0,0,1,.941,1.349,4.1,4.1,0,0,1,.142,1.321,4.316,4.316,0,0,1-.285,1.408,3.12,3.12,0,0,1-.769,1.148,1.978,1.978,0,0,1-1.254.546,10.923,10.923,0,0,1-3.078.144q-1.6-.143-3.079-.144-1.654,0-2.907.115t-2.85.114q-.627,0-1.6-.057a4.134,4.134,0,0,0-1.482.114,1.232,1.232,0,0,0-.713.46,2.244,2.244,0,0,0-.371.775,3.437,3.437,0,0,0-.114.89v.8q0,.978-.085,1.981t-.143,1.982q-.115,1.322.371,1.465a3.446,3.446,0,0,0,1.682-.2,17.2,17.2,0,0,1,4.218-.517,18.261,18.261,0,0,1,5.415.775,12.2,12.2,0,0,1,4.36,2.355,10.949,10.949,0,0,1,2.907,3.964,13.6,13.6,0,0,1,1.055,5.543q0,.575-.029,1.092a6.565,6.565,0,0,1-.142,1.034,12.483,12.483,0,0,1-8.323,10.34,21.237,21.237,0,0,1-8.379,1.407,15.4,15.4,0,0,1-7.98-2.5,9.562,9.562,0,0,1-1.881-1.522,5.526,5.526,0,0,1-1.254-2.04,4.842,4.842,0,0,1-.256-2.5,2.492,2.492,0,0,1,1.51-1.924,2.983,2.983,0,0,1,1.8-.315,4.711,4.711,0,0,1,1.567.574,10.215,10.215,0,0,1,1.454,1.034,8.508,8.508,0,0,0,1.454,1,18.73,18.73,0,0,0,2.736,1.063,10.389,10.389,0,0,0,3.022.431,8.236,8.236,0,0,0,5.671-1.9,6.489,6.489,0,0,0,2.138-5.112,5.838,5.838,0,0,0-2.224-4.854,9.41,9.41,0,0,0-5.985-1.752,16.4,16.4,0,0,0-1.938.115,11.646,11.646,0,0,0-1.938.4q-.913.23-1.8.517a8.3,8.3,0,0,1-1.739.373,4.175,4.175,0,0,1-1.681-.172,3.369,3.369,0,0,1-1.568-1.177,2.777,2.777,0,0,1-.741-1.954,18.214,18.214,0,0,1,.114-2.125q.113-1.666.171-3.332t.171-3.331q.114-1.665.2-3.3t.2-3.3a5.119,5.119,0,0,1,.285-1.551A2.858,2.858,0,0,1,119.53,421.566Z" transform="translate(-115.963 -420.469)" fill="#ff7f30"/>
                        <path id="Path_963" data-name="Path 963" d="M165.978,461.494a15.5,15.5,0,0,1-2.08-.144,9.032,9.032,0,0,1-2.08-.546,13,13,0,0,1-2.936-1.695,16.7,16.7,0,0,1-2.537-2.383,21.158,21.158,0,0,1-4.161-7.324,26.674,26.674,0,0,1-1.425-8.588,30.2,30.2,0,0,1,2.281-11.546,15.169,15.169,0,0,1,1.054-2.068,17.848,17.848,0,0,1,3.192-3.906,6.725,6.725,0,0,1,1.8-1.207q1.253-.573,2.736-1.149a12.6,12.6,0,0,1,4.1-.517,19.715,19.715,0,0,1,4.161.517,10.489,10.489,0,0,1,4.5,2.269,15.246,15.246,0,0,1,3.192,3.906,21.129,21.129,0,0,1,2.052,4.94,37.553,37.553,0,0,1,1.083,5.429,23.636,23.636,0,0,1,.171,3.648q-.058,1.809-.285,3.648-.229,1.666-.542,3.331a24.9,24.9,0,0,1-.827,3.217,16.461,16.461,0,0,1-1.311,2.958,12.355,12.355,0,0,1-2,2.615,16.849,16.849,0,0,1-4.7,3.3A14.148,14.148,0,0,1,165.978,461.494Zm-.057-33.488a8.582,8.582,0,0,0-1.568.144,3.859,3.859,0,0,0-1.453.6,6.357,6.357,0,0,0-1.425,1.263,10.31,10.31,0,0,0-1.083,1.551,14.127,14.127,0,0,0-1.653,4.424,24.97,24.97,0,0,0-.456,4.767,25.346,25.346,0,0,0,.542,5.112,13.792,13.792,0,0,0,1.966,4.826,8.2,8.2,0,0,0,1.625,1.809,5.825,5.825,0,0,0,2.195,1.12,6.658,6.658,0,0,0,2.308.172,5.078,5.078,0,0,0,2.195-.746,7.593,7.593,0,0,0,2.622-2.757,14.55,14.55,0,0,0,1.454-3.734,21.368,21.368,0,0,0,.57-4.136,36.583,36.583,0,0,0-.029-3.849,21.6,21.6,0,0,0-.57-3.618,13.148,13.148,0,0,0-1.339-3.447,7.7,7.7,0,0,0-2.337-2.555A5.827,5.827,0,0,0,165.921,428.005Z" transform="translate(-121.721 -420.418)" fill="#ff7f30"/>
                    </g>
                </g>
            </g>
        </g>
        <g id="Group_2028" data-name="Group 2028" transform="translate(235.404 421.543)">
            <path id="Path_964" data-name="Path 964" d="M277.059,451.82a6.927,6.927,0,0,1-1.114-.164,3.7,3.7,0,0,1-.973-.365,1.874,1.874,0,0,1-.691-.676,2.247,2.247,0,0,1-.265-1.168,1.923,1.923,0,0,1,.461-1.279,1.752,1.752,0,0,1,.707-.437,5.942,5.942,0,0,1,.814-.219,3.815,3.815,0,0,1,.69-.073h.336l19.357.037q.919,0,1.681.018a2.129,2.129,0,0,1,1.362.53,2.1,2.1,0,0,1,.744,1.57,1.723,1.723,0,0,1-.319,1,1.675,1.675,0,0,1-.85.638,6.166,6.166,0,0,1-1.468.4q-.762.109-1.5.145-2.584.109-5.1.073t-4.883-.036q-2.547,0-4.971.036T277.059,451.82Zm5.273-10.552q-.391.293-.8.658c-.273.244-.549.493-.832.748a9.948,9.948,0,0,1-.885.713,3.035,3.035,0,0,1-1.027.474,2.422,2.422,0,0,1-1.379-.036,2.038,2.038,0,0,1-1.132-.767,1.6,1.6,0,0,1-.284-.876,2.4,2.4,0,0,1,.159-.858,4.734,4.734,0,0,1,.407-.822,5.793,5.793,0,0,1,.53-.73q1.063-1.278,2.177-2.428t2.317-2.247a8.475,8.475,0,0,0,.885-.894q.5-.566.92-1.114.494-.656,1.026-1.314,0-.657.036-1.314.034-.547.053-1.205a10.778,10.778,0,0,1,.089-1.168,4.356,4.356,0,0,1,.317-1.241,2.89,2.89,0,0,1,.532-.877,2.281,2.281,0,0,1,1.239-.566,2.865,2.865,0,0,1,1.344.055,2.019,2.019,0,0,1,1.185.876,3.367,3.367,0,0,1,.442,1.46q.035.329.053.913c.011.39.035.785.07,1.187s.083.784.141,1.15a1.97,1.97,0,0,0,.3.84c.188.291.371.572.547.84a7.44,7.44,0,0,0,.619.8q1.239,1.425,2.442,2.867t2.478,2.83a5.814,5.814,0,0,1,.813,1.095,4.739,4.739,0,0,1,.55,1.334,2.353,2.353,0,0,1-.036,1.278,1.683,1.683,0,0,1-.937.967,1.879,1.879,0,0,1-1.027.2,2.694,2.694,0,0,1-.955-.292,4.133,4.133,0,0,1-.868-.6,8.282,8.282,0,0,1-.725-.73l-5.944-5.806Z" transform="translate(-274.016 -424.654)" fill="#ff7f30"/>
            <path id="Path_965" data-name="Path 965" d="M333.017,447.678a.433.433,0,0,0,.213.019,1.216,1.216,0,0,1,.213-.019,6.1,6.1,0,0,1,1.115.237,2.87,2.87,0,0,1,1.008.6,1.765,1.765,0,0,1,.495,1.278,3.26,3.26,0,0,1-.124.859,1.857,1.857,0,0,1-.335.711,1.78,1.78,0,0,1-.708.438,4.33,4.33,0,0,1-.814.2,5,5,0,0,1-.69.055H313.237a3.351,3.351,0,0,0-.354.018c-.118.012-.236.018-.354.018a14.052,14.052,0,0,1-1.592-.018,2.426,2.426,0,0,1-1.45-.566,2.1,2.1,0,0,1-.744-1.571,2.363,2.363,0,0,1,.318-1.132,1.715,1.715,0,0,1,.85-.8,3.815,3.815,0,0,1,1.469-.292q.76,0,1.539-.037h.176q1.7-.035,3.327-.037t3.4.037l-.035-3.943h-3.15c-.376,0-.79-.012-1.238-.036a7.853,7.853,0,0,1-1.309-.183,5.626,5.626,0,0,1-1.2-.421,2.786,2.786,0,0,1-.955-.749,2.942,2.942,0,0,1-.532-1.077,6.966,6.966,0,0,1-.229-1.278q-.053-.638-.053-1.095V428.436a4.087,4.087,0,0,1,.035-.493,4.524,4.524,0,0,1,.107-.547,2.575,2.575,0,0,1,.177-.492,3.006,3.006,0,0,1,.638-.767,1.705,1.705,0,0,1,.849-.329,1.356,1.356,0,0,1,.336-.037,2.345,2.345,0,0,0,.407-.037,3.969,3.969,0,0,0,.5-.036h14.861c.118,0,.241.006.372.018a1.247,1.247,0,0,0,.371-.018h.07a6.114,6.114,0,0,1,.655.036,3.031,3.031,0,0,1,.654.147,6.1,6.1,0,0,1,.638.182,1.305,1.305,0,0,1,.567.4,1.246,1.246,0,0,0,.317.347.649.649,0,0,1,.213.42,3.306,3.306,0,0,1,.035,1.1,2.5,2.5,0,0,1-.6,1.333,1.616,1.616,0,0,1-1.274.566H315.962v2.118q.282,0,.831.018c.365.012.79.018,1.274.018H321.2q1.875,0,4.07-.036H328.7a3.359,3.359,0,0,1,.355.018,1.178,1.178,0,0,0,.354-.018h.956a4.544,4.544,0,0,1,.8.073,2.147,2.147,0,0,1,.76.293,1.457,1.457,0,0,1,.673.967,3.611,3.611,0,0,1,.07,1.223c0,.194-.005.371-.018.528a.823.823,0,0,1-.194.457,1.748,1.748,0,0,1-.85.749,3.187,3.187,0,0,1-.92.128h-4.246q-2.123.036-3.857.037h-5.662c-.306,0-.625-.013-.955-.037.023.487.035.779.035.876v.054c0-.06-.013-.225-.035-.492v1.752a1.764,1.764,0,0,0,.018.329c.012.048.029.068.053.054a.3.3,0,0,0,.072-.054.1.1,0,0,1,.07-.037,2.192,2.192,0,0,0,.8.219,9.367,9.367,0,0,0,1.256.073h.142c.118,0,.407-.006.867-.018s1-.019,1.628-.019h3.962c.626,0,1.162.007,1.611.019s.743.018.885.018h1.7a2.8,2.8,0,0,0,.532-.037h.6c.376,0,.754.013,1.132.037a4.732,4.732,0,0,1,1.132.219c.071.024.135.049.194.073a1.061,1.061,0,0,1,.194.11,1.729,1.729,0,0,1-.248,3.067,5.021,5.021,0,0,1-1.628.584,9.748,9.748,0,0,1-1.662.146h-1.45a10.871,10.871,0,0,1-1.168.018q-.779-.019-2.017-.018l.035,3.943q.85,0,1.576-.018c.482-.012.956-.019,1.414-.019s.933.007,1.416.019,1,.018,1.539.018a8.365,8.365,0,0,0,1.239-.018A5.379,5.379,0,0,1,333.017,447.678Z" transform="translate(-279.763 -424.712)" fill="#ff7f30"/>
            <path id="Path_966" data-name="Path 966" d="M353.023,424.7q.461,0,.885.037c.283.024.567.061.849.109a4.186,4.186,0,0,1,2.371,1.278,8.39,8.39,0,0,1,1.4,2.173,14.357,14.357,0,0,1,.866,2.574,21.261,21.261,0,0,1,.461,2.757q.14,1.406.212,2.72.07,1.68.036,3.36t-.213,3.322q-.178,1.716-.512,3.451a8.94,8.94,0,0,1-1.221,3.122,6.565,6.565,0,0,1-1.84,1.917,6.44,6.44,0,0,1-2.3,1,6.862,6.862,0,0,1-2.23.073,5.5,5.5,0,0,1-2.159-.767,5.7,5.7,0,0,1-1.61-1.46,9.811,9.811,0,0,1-1.151-2.045,11.305,11.305,0,0,1-.813-3.615q-.141-1.533-.2-3.067t-.053-3.068q0-1.058.018-2.062t.124-2.027q.07-.84.176-1.662c.072-.547.153-1.089.248-1.625.094-.438.178-.852.248-1.241a5.09,5.09,0,0,1,.389-1.205,10.742,10.742,0,0,1,.62-1.169,4.8,4.8,0,0,1,.8-.986,5.734,5.734,0,0,1,1.733-1.241,7.119,7.119,0,0,1,1.982-.585,2.7,2.7,0,0,1,.441-.036A2.628,2.628,0,0,0,353.023,424.7Zm-.107,22.967a2.287,2.287,0,0,0,1.31-.438,2.335,2.335,0,0,0,.849-1.168,13.092,13.092,0,0,0,.425-1.607,24.339,24.339,0,0,0,.319-3.578q.034-1.9-.036-3.652,0-.692-.035-1.478t-.123-1.552a11.9,11.9,0,0,0-.265-1.479,4.84,4.84,0,0,0-.5-1.26,2.743,2.743,0,0,0-.849-.949,1.518,1.518,0,0,0-1.063-.255,2.28,2.28,0,0,0-1.1.438,2.611,2.611,0,0,0-.814,1.1l-.319.766a9.657,9.657,0,0,0-.318,1.442c-.07.5-.13.993-.176,1.48s-.083.985-.107,1.5-.035,1.01-.035,1.5a11.512,11.512,0,0,1-.018,1.424,8.065,8.065,0,0,0,.018,1.424q.069.949.194,2.045a12.318,12.318,0,0,0,.407,2.063,4.406,4.406,0,0,0,.814,1.606A1.746,1.746,0,0,0,352.916,447.665Zm12.811-7.01a11.049,11.049,0,0,0-1.309-.092,11.223,11.223,0,0,1-1.31-.091,2.058,2.058,0,0,1-1.768-.95,2.8,2.8,0,0,1-.142-2.264,1.869,1.869,0,0,1,.3-.621,2.716,2.716,0,0,1,.442-.511,2.632,2.632,0,0,1,.991-.475,8.118,8.118,0,0,1,1.362-.037,8.366,8.366,0,0,0,1.4-.037h.106v-.145c0-.293.006-.512.018-.658s.018-.28.018-.4-.007-.256-.018-.4-.018-.377-.018-.694q0-.949-.018-1.88t.018-1.844v-.512q0-.473.018-1.04t.088-1.132a4.987,4.987,0,0,1,.248-1.059,2.265,2.265,0,0,1,.5-.821,1.674,1.674,0,0,1,1.132-.475h.071a2.016,2.016,0,0,1,1.362.529,3.229,3.229,0,0,1,.779,1.188,5.469,5.469,0,0,1,.336,1.442q.07.749.071,1.333v22.254a4.872,4.872,0,0,1-.071.749,6.084,6.084,0,0,1-.212.876,1.721,1.721,0,0,1-1.168,1.132,2.844,2.844,0,0,1-.85.146,1.673,1.673,0,0,1-1.345-.584,2.223,2.223,0,0,1-.565-1.059q-.106-.547-.177-1.168a1.29,1.29,0,0,0-.018-.219,1.658,1.658,0,0,1-.017-.256,10.068,10.068,0,0,1-.072-1.241c0-.438-.012-.877-.035-1.314q-.035-.4-.035-.785v-2.593q0-.6-.018-1.259t-.018-1.242v-1.387A1.108,1.108,0,0,0,365.726,440.656Z" transform="translate(-285.896 -424.516)" fill="#ff7f30"/>
        </g>
    </g>
    <text id="BETA" transform="translate(250.999 13)" fill="#373737" font-size="11" font-family="NotoSansKR-Bold, Noto Sans KR" font-weight="700"><tspan x="0" y="0">BETA</tspan></text>
</svg>
